<svg width="80" height="80" viewBox="0 0 80 80" fill="none" xmlns="http://www.w3.org/2000/svg">
<rect x="0.75" y="0.75" width="78.5" height="78.5" rx="19.25" stroke="#2E2BD0" stroke-width="1.5"/>
<path d="M20.25 14.9995H59.75C61.25 14.9995 62.5 16.2495 62.25 17.7495L57.75 58.2495C57.75 59.2495 57 59.9995 56 60.4995L40.75 64.7495C40.25 64.9995 39.75 64.9995 39.5 64.7495L24.25 60.4995C23.25 60.2495 22.5 59.4995 22.5 58.2495L17.75 17.7495C17.75 16.2495 18.75 14.9995 20.25 14.9995Z" stroke="#2E2BD0" stroke-width="1.5" stroke-miterlimit="10" stroke-linecap="round" stroke-linejoin="round"/>
<path d="M36.5 27.5005V50.0005L28.75 47.7505" stroke="#2E2BD0" stroke-width="1.5" stroke-miterlimit="10" stroke-linecap="round" stroke-linejoin="round"/>
<path d="M51.25 27.5005L43.5 28.5005V41.0005L51.25 39.7505V47.7505L42.25 50.0005" stroke="#2E2BD0" stroke-width="1.5" stroke-miterlimit="10" stroke-linecap="round" stroke-linejoin="round"/>
</svg>
