<svg width="350" height="117" viewBox="0 0 350 117" fill="none" xmlns="http://www.w3.org/2000/svg">
<path d="M144.171 56.5664C144.171 55.4883 143.624 54.6198 142.531 53.9609C141.453 53.3021 140.128 52.7555 138.556 52.3213C136.998 51.8721 135.441 51.348 133.884 50.749C132.341 50.1501 131.024 49.1618 129.931 47.7842C128.838 46.4066 128.291 44.6621 128.291 42.5508C128.291 39.9453 129.332 37.7217 131.413 35.8799C133.509 34.0381 136.227 33.1172 139.566 33.1172C140.884 33.1172 142.157 33.2744 143.385 33.5889C144.613 33.8883 145.616 34.2477 146.395 34.667C147.188 35.0713 147.877 35.4906 148.461 35.9248C149.06 36.3441 149.487 36.7109 149.741 37.0254L150.146 37.4746L146.013 41.8545C145.833 41.6449 145.578 41.3903 145.249 41.0908C144.935 40.7764 144.261 40.3646 143.228 39.8555C142.194 39.3464 141.131 39.0918 140.038 39.0918C138.72 39.0918 137.657 39.4287 136.849 40.1025C136.055 40.7764 135.658 41.5924 135.658 42.5508C135.658 43.6289 136.197 44.4974 137.275 45.1562C138.368 45.8001 139.686 46.3467 141.229 46.7959C142.786 47.2451 144.343 47.7692 145.9 48.3682C147.473 48.9671 148.805 49.9554 149.898 51.333C150.992 52.7106 151.538 54.4551 151.538 56.5664C151.538 59.5462 150.452 61.9795 148.281 63.8662C146.125 65.7529 143.145 66.6963 139.342 66.6963C137.844 66.6963 136.392 66.5091 134.984 66.1348C133.592 65.7754 132.439 65.3411 131.525 64.832C130.627 64.3229 129.833 63.8063 129.145 63.2822C128.456 62.7581 127.962 62.3164 127.662 61.957L127.146 61.3955L131.301 57.2627C131.51 57.5023 131.802 57.8167 132.177 58.2061C132.566 58.5804 133.42 59.0895 134.737 59.7334C136.055 60.3773 137.433 60.6992 138.87 60.6992C140.532 60.6992 141.827 60.3099 142.756 59.5312C143.699 58.7526 144.171 57.7643 144.171 56.5664ZM166.475 58.2959C167.882 59.7484 169.567 60.4746 171.528 60.4746C173.49 60.4746 175.167 59.7484 176.56 58.2959C177.952 56.8434 178.648 55.0391 178.648 52.8828V33.791H185.544V52.8828C185.544 56.806 184.211 60.0928 181.546 62.7432C178.881 65.3786 175.534 66.6963 171.506 66.6963C167.493 66.6963 164.154 65.3786 161.488 62.7432C158.823 60.0928 157.49 56.806 157.49 52.8828V33.791H164.386V52.8828C164.386 55.0241 165.082 56.8285 166.475 58.2959ZM193.607 33.791H207.174C210.483 33.791 213.223 34.8317 215.395 36.9131C217.581 38.9795 218.674 41.5475 218.674 44.6172C218.674 47.6719 217.588 50.2399 215.417 52.3213C213.246 54.3877 210.498 55.4209 207.174 55.4209H200.525V66H193.607V33.791ZM206.949 40.0127H200.525V49.1992H206.949C208.327 49.1992 209.472 48.7575 210.386 47.874C211.314 46.9906 211.778 45.9049 211.778 44.6172C211.778 43.3294 211.314 42.2438 210.386 41.3604C209.472 40.4619 208.327 40.0127 206.949 40.0127ZM224.873 33.791H238.439C241.749 33.791 244.489 34.8317 246.66 36.9131C248.846 38.9795 249.939 41.5475 249.939 44.6172C249.939 47.6719 248.854 50.2399 246.683 52.3213C244.511 54.3877 241.764 55.4209 238.439 55.4209H231.791V66H224.873V33.791ZM238.215 40.0127H231.791V49.1992H238.215C239.592 49.1992 240.738 48.7575 241.651 47.874C242.58 46.9906 243.044 45.9049 243.044 44.6172C243.044 43.3294 242.58 42.2438 241.651 41.3604C240.738 40.4619 239.592 40.0127 238.215 40.0127ZM264.449 42.3936C262.443 44.43 261.439 46.9382 261.439 49.918C261.439 52.8828 262.443 55.3835 264.449 57.4199C266.456 59.4564 268.896 60.4746 271.771 60.4746C274.661 60.4746 277.11 59.4564 279.116 57.4199C281.123 55.3835 282.126 52.8828 282.126 49.918C282.126 46.9382 281.123 44.43 279.116 42.3936C277.11 40.3421 274.661 39.3164 271.771 39.3164C268.896 39.3164 266.456 40.3421 264.449 42.3936ZM259.351 61.7773C255.981 58.4831 254.297 54.5225 254.297 49.8955C254.297 45.2686 255.981 41.3154 259.351 38.0361C262.735 34.7568 266.875 33.1172 271.771 33.1172C276.683 33.1172 280.823 34.7568 284.192 38.0361C287.576 41.3154 289.269 45.2686 289.269 49.8955C289.269 54.5225 287.576 58.4831 284.192 61.7773C280.823 65.0566 276.683 66.6963 271.771 66.6963C266.875 66.6963 262.735 65.0566 259.351 61.7773ZM295.715 66V33.791H309.978C313.167 33.791 315.802 34.8167 317.884 36.8682C319.98 38.9046 321.028 41.4053 321.028 44.3701C321.028 45.6579 320.826 46.8633 320.422 47.9863C320.018 49.1094 319.538 50.0153 318.984 50.7041C318.445 51.3929 317.891 51.9844 317.322 52.4785C316.753 52.9727 316.267 53.3096 315.862 53.4893L315.278 53.8037L322.174 66H314.807L308.607 54.7246H302.633V66H295.715ZM314.133 44.3701C314.133 43.1123 313.714 42.0716 312.875 41.248C312.051 40.4245 311.011 40.0127 309.753 40.0127H302.633V48.5254H309.753C311.011 48.5254 312.051 48.1286 312.875 47.335C313.714 46.5264 314.133 45.5381 314.133 44.3701ZM324.218 33.791H349.509V40.0127H340.322V66H333.427V40.0127H324.218V33.791ZM147.158 98.5254H159.804V110.475C159.684 110.624 159.489 110.849 159.22 111.148C158.965 111.433 158.389 111.935 157.49 112.653C156.607 113.357 155.663 113.986 154.66 114.54C153.672 115.079 152.369 115.573 150.752 116.022C149.15 116.472 147.495 116.696 145.788 116.696C140.877 116.696 136.729 115.057 133.345 111.777C129.976 108.483 128.291 104.522 128.291 99.8955C128.291 95.2686 129.976 91.3154 133.345 88.0361C136.729 84.7568 140.877 83.1172 145.788 83.1172C147.48 83.1172 149.09 83.3418 150.617 83.791C152.145 84.2253 153.395 84.7568 154.368 85.3857C155.356 86.0146 156.225 86.6436 156.974 87.2725C157.737 87.9014 158.284 88.4329 158.613 88.8672L159.13 89.541L154.75 93.9209C154.66 93.8011 154.533 93.6364 154.368 93.4268C154.218 93.2021 153.867 92.8278 153.312 92.3037C152.773 91.7796 152.182 91.3229 151.538 90.9336C150.894 90.5293 150.048 90.1624 149 89.833C147.952 89.4886 146.881 89.3164 145.788 89.3164C142.778 89.3164 140.263 90.3271 138.241 92.3486C136.22 94.3701 135.209 96.8857 135.209 99.8955C135.209 102.905 136.22 105.421 138.241 107.442C140.263 109.464 142.778 110.475 145.788 110.475C147.226 110.475 148.536 110.265 149.719 109.846C150.902 109.411 151.733 108.977 152.212 108.543L152.908 107.959V103.579H147.158V98.5254ZM167.373 116V83.791H181.636C184.825 83.791 187.461 84.8167 189.542 86.8682C191.638 88.9046 192.687 91.4053 192.687 94.3701C192.687 95.6579 192.484 96.8633 192.08 97.9863C191.676 99.1094 191.197 100.015 190.643 100.704C190.104 101.393 189.549 101.984 188.98 102.479C188.411 102.973 187.925 103.31 187.521 103.489L186.937 103.804L193.832 116H186.465L180.266 104.725H174.291V116H167.373ZM185.791 94.3701C185.791 93.1123 185.372 92.0716 184.533 91.248C183.71 90.4245 182.669 90.0127 181.411 90.0127H174.291V98.5254H181.411C182.669 98.5254 183.71 98.1286 184.533 97.335C185.372 96.5264 185.791 95.5381 185.791 94.3701ZM208.342 92.3936C206.335 94.43 205.332 96.9382 205.332 99.918C205.332 102.883 206.335 105.383 208.342 107.42C210.348 109.456 212.789 110.475 215.664 110.475C218.554 110.475 221.002 109.456 223.009 107.42C225.015 105.383 226.019 102.883 226.019 99.918C226.019 96.9382 225.015 94.43 223.009 92.3936C221.002 90.3421 218.554 89.3164 215.664 89.3164C212.789 89.3164 210.348 90.3421 208.342 92.3936ZM203.243 111.777C199.874 108.483 198.189 104.522 198.189 99.8955C198.189 95.2686 199.874 91.3154 203.243 88.0361C206.627 84.7568 210.768 83.1172 215.664 83.1172C220.576 83.1172 224.716 84.7568 228.085 88.0361C231.469 91.3154 233.161 95.2686 233.161 99.8955C233.161 104.522 231.469 108.483 228.085 111.777C224.716 115.057 220.576 116.696 215.664 116.696C210.768 116.696 206.627 115.057 203.243 111.777ZM248.367 108.296C249.775 109.748 251.459 110.475 253.421 110.475C255.382 110.475 257.06 109.748 258.452 108.296C259.845 106.843 260.541 105.039 260.541 102.883V83.791H267.437V102.883C267.437 106.806 266.104 110.093 263.438 112.743C260.773 115.379 257.426 116.696 253.398 116.696C249.385 116.696 246.046 115.379 243.381 112.743C240.715 110.093 239.383 106.806 239.383 102.883V83.791H246.278V102.883C246.278 105.024 246.975 106.828 248.367 108.296ZM275.5 83.791H289.066C292.376 83.791 295.116 84.8317 297.287 86.9131C299.473 88.9795 300.566 91.5475 300.566 94.6172C300.566 97.6719 299.481 100.24 297.31 102.321C295.138 104.388 292.391 105.421 289.066 105.421H282.418V116H275.5V83.791ZM288.842 90.0127H282.418V99.1992H288.842C290.219 99.1992 291.365 98.7575 292.278 97.874C293.207 96.9906 293.671 95.9049 293.671 94.6172C293.671 93.3294 293.207 92.2438 292.278 91.3604C291.365 90.4619 290.219 90.0127 288.842 90.0127Z" fill="white"/>
<path d="M3 115V35H27.5089V115H3Z" fill="white"/>
<path d="M34.6035 56.76V35H112V56.76H86.2012V115H60.4024V56.76H34.6035Z" fill="white"/>
<path d="M22 14V22H15.5C11.3579 22 8 18.6421 8 14.5V14C8 10.134 11.134 7 15 7C18.866 7 22 10.134 22 14Z" stroke="white" stroke-width="14"/>
</svg>
